<svg width="574" height="547" viewBox="0 0 574 547" fill="none" xmlns="http://www.w3.org/2000/svg">
<path d="M486.43 117.005C479.683 108.773 468.82 102.823 457.96 104.66C446.823 106.543 438.95 116.389 435.933 126.703C434.177 132.934 433.35 139.391 433.48 145.863C433.501 151.697 433.875 157.525 434.602 163.313C445.423 161.318 456.416 160.418 467.417 160.628L467.48 160.643L467.562 160.628C480.283 160.649 492.926 162.646 505.035 166.542C499.498 146.051 496.037 128.727 486.43 117.005ZM470.787 145.121C468.229 150.079 461.506 151.941 456.258 151.781C456.094 151.777 455.932 151.736 455.785 151.662C455.638 151.587 455.51 151.48 455.411 151.349C455.311 151.218 455.242 151.066 455.209 150.905C455.176 150.743 455.18 150.576 455.22 150.417C456.264 147.495 456.754 144.405 456.666 141.304C456.062 141.395 455.444 141.551 454.876 141.606C451.91 141.862 448.926 141.739 445.993 141.238C445.767 141.173 445.568 141.037 445.426 140.85C445.283 140.663 445.205 140.435 445.203 140.2C445.145 138.096 445.528 136.003 446.328 134.056C450 125.306 463.591 125.1 469.261 131.862C470.787 133.679 471.746 135.905 472.017 138.262C472.289 140.62 471.861 143.005 470.787 145.121Z" fill="black"/>
<path d="M393.685 388.749C390.486 390.461 386.958 391.47 383.338 391.709C381.968 391.8 340.713 391.76 322.956 391.76C322.46 397.359 322.186 402.975 322.135 408.595H389.994C390.28 408.595 390.554 408.708 390.756 408.91C390.958 409.112 391.072 409.386 391.072 409.672C391.072 409.958 390.958 410.232 390.756 410.434C390.554 410.636 390.28 410.749 389.994 410.749H322.102C322.173 421.544 322.885 432.325 324.232 443.036C324.899 450.009 325.629 455.495 331.172 462.118C344.636 478.192 367.714 477.564 385.263 467.269C388.551 465.383 391.547 463.03 394.158 460.283C393.437 459 392.887 457.627 392.523 456.201C390.954 450.281 392.122 441.204 392.957 435.13C393.003 434.807 399.089 394.714 404.897 379.021C401.639 382.778 397.864 386.053 393.685 388.749Z" fill="#DAF8FF"/>
<path d="M184.69 408.595H256.031C253.919 397.979 250.428 387.473 242.607 380.231C235.259 373.426 225.205 370.548 215.55 367.889L181.498 358.511C181.335 358.55 138.626 368.807 138.348 368.87C151.472 381.401 162.399 396.046 170.674 412.194C172.965 416.554 174.435 421.298 175.01 426.189C175.208 428.487 175.08 430.801 174.63 433.063C172.579 441.572 167.913 449.224 161.287 454.943C163.957 457.48 163.966 458.847 175.662 492.422C179.38 503.101 182.626 506.526 196.039 506.966C205.824 507.295 215.622 507.096 225.383 506.363C237.58 505.442 253.78 502.591 259.459 491.668C260.756 488.426 261.372 484.953 261.27 481.463C262.069 457.794 260.451 434.105 256.442 410.764H184.69C184.489 410.745 184.297 410.67 184.135 410.548C183.974 410.425 183.85 410.261 183.776 410.072C183.703 409.883 183.684 409.678 183.72 409.479C183.757 409.28 183.848 409.095 183.984 408.945C184.168 408.744 184.419 408.619 184.69 408.595ZM236.436 384.102L241.146 393.417C241.771 394.654 239.912 395.743 239.288 394.503C237.716 391.398 236.144 388.293 234.578 385.188C233.944 383.945 235.812 382.856 236.436 384.102Z" fill="white"/>
<path d="M528.661 343.714C520.289 342.64 512.061 340.644 504.127 337.763C504.889 341.84 504.01 346.052 501.679 349.483C499.465 351.996 496.462 353.681 493.164 354.264C489.866 354.846 486.467 354.29 483.527 352.687C481.755 351.566 480.254 350.066 479.13 348.295C478.007 346.524 477.29 344.527 477.03 342.446C472.67 352.603 457.039 354.676 451.21 345.177C448.564 340.821 447.21 335.804 447.305 330.708C442.55 338.251 436.235 344.688 428.784 349.585C428.784 354.736 428.92 355.002 428.513 355.43C428.31 355.732 429.101 354.772 408.797 375.137C403.721 386.809 400.882 401.265 398.368 415.305C396.558 425.441 391.244 448.09 395.303 457.721C397.442 461.704 400.354 465.221 403.867 468.066C407.38 470.912 411.424 473.03 415.764 474.296C415.954 474.359 416.122 474.474 416.25 474.627C416.379 474.781 416.462 474.967 416.49 475.165C416.519 475.363 416.492 475.565 416.412 475.748C416.332 475.932 416.203 476.089 416.038 476.203C415.818 476.357 415.547 476.42 415.281 476.381C437.96 483.095 467.395 482.25 480.256 462.38C487.335 451.445 489.911 436.114 498.502 416.087C502.805 406.063 506.148 403.848 512.883 397.68C519.797 391.998 525.249 384.741 528.782 376.519C532.669 366.1 531.434 354.434 528.661 343.714ZM417.764 386.389C419.499 383.275 421.288 380.19 423.129 377.138C423.201 377.015 423.295 376.908 423.408 376.822C423.521 376.736 423.65 376.673 423.787 376.637C423.924 376.601 424.067 376.593 424.207 376.613C424.348 376.632 424.483 376.679 424.605 376.751C424.851 376.896 425.029 377.132 425.102 377.408C425.174 377.684 425.134 377.977 424.991 378.224C423.252 381.336 421.464 384.42 419.626 387.475C419.468 387.692 419.235 387.843 418.973 387.898C418.71 387.953 418.436 387.909 418.204 387.774C417.973 387.638 417.799 387.422 417.718 387.166C417.637 386.91 417.653 386.633 417.764 386.389Z" fill="#DAF8FF"/>
<path d="M554.42 202.151C540.738 183.643 521.105 170.405 498.818 164.659C488.603 162.04 478.105 160.686 467.56 160.628L467.479 160.643C467.636 160.657 467.788 160.705 467.926 160.783C468.063 160.861 468.182 160.967 468.275 161.095C468.369 161.222 468.433 161.369 468.464 161.524C468.495 161.678 468.491 161.838 468.453 161.991C468.013 166.041 466.965 170.001 465.345 173.738C463.233 178.53 459.844 179.511 457.068 178.213C451.984 175.835 450.786 167.737 450.958 162.142C450.965 161.879 451.066 161.627 451.244 161.434C451.423 161.24 451.665 161.118 451.927 161.089C451.625 161.038 444.111 161.669 436.686 162.921C411.372 167.184 399.806 174.45 389.508 184.589C372.836 200.91 359.062 219.946 348.772 240.885L348.754 240.94C348.845 240.763 348.986 240.618 349.161 240.524C349.336 240.431 349.535 240.392 349.732 240.415C349.863 240.426 349.99 240.464 350.106 240.526C351.859 241.459 398.207 262.62 403.666 265.242C403.879 265.364 404.042 265.558 404.123 265.79C404.205 266.022 404.2 266.275 404.109 266.503C404.207 266.35 404.284 266.185 404.339 266.012C405.787 272.366 406.725 278.824 407.561 285.29H418.162C420.244 285.24 422.293 285.821 424.039 286.957C425.785 288.094 427.147 289.732 427.944 291.657C428.472 292.936 428.735 294.309 428.723 295.691C429.732 293.238 431.224 291.013 433.11 289.147C434.996 287.281 437.237 285.812 439.7 284.828C445.387 282.842 451.425 282.062 457.43 282.538C485.728 284.545 480.327 284.78 506.419 288.141C505.418 275.473 505.72 262.735 507.321 250.128C507.387 249.903 507.523 249.704 507.71 249.562C507.897 249.42 508.124 249.341 508.359 249.337C520.127 249.174 548.159 248.01 570.093 246.413C570.327 246.415 570.556 246.492 570.743 246.634C570.93 246.776 571.066 246.975 571.131 247.201C569.1 231.099 563.381 215.682 554.42 202.151Z" fill="white"/>
<path d="M469.248 131.875C462.67 124.029 444.921 125.254 445.202 140.209C445.205 140.444 445.284 140.671 445.426 140.858C445.568 141.045 445.767 141.181 445.992 141.247C447.987 141.576 450.005 141.745 452.027 141.76C453.586 141.791 455.143 141.642 456.668 141.316C456.756 144.417 456.266 147.507 455.223 150.429C455.173 150.639 455.184 150.858 455.256 151.062C455.328 151.265 455.457 151.443 455.627 151.575C455.742 151.66 455.872 151.722 456.01 151.756C459.152 151.926 462.289 151.361 465.174 150.106C466.849 149.385 468.328 148.277 469.492 146.873C470.656 145.47 471.471 143.81 471.87 142.031C472.268 140.251 472.238 138.402 471.782 136.636C471.326 134.869 470.458 133.237 469.248 131.872V131.875Z" fill="white"/>
<path d="M175.01 426.189C174.435 421.298 172.965 416.554 170.674 412.194C162.388 396.049 151.458 381.404 138.336 368.867C130.189 370.678 120.271 372.47 112.893 373.819C88.8683 378.209 56.5093 383.306 32.237 384.41C29.4489 384.537 26.4375 384.675 23.4201 384.561C23.158 384.553 22.9072 384.452 22.7134 384.275C22.5196 384.099 22.3956 383.858 22.364 383.598C22.373 383.978 22.4092 384.359 22.4726 384.733C22.7894 387.445 23.4683 390.104 24.4852 392.635C30.3089 407.288 44.9253 417.137 59.1194 424.065C51.3676 426.989 43.489 429.575 35.867 432.831C31.3408 434.373 27.2125 436.898 23.7791 440.226C19.8082 444.707 19.7116 449.783 21.2264 455.588C24.3898 465.823 29.0422 475.537 35.0342 484.417C38.3534 489.465 44.8921 498.529 50.6736 500.346C52.8686 500.825 55.1365 500.868 57.3481 500.473C62.8439 499.41 68.2694 498.011 73.594 496.284C102.706 487.917 139.094 476.019 161.287 454.946C167.913 449.227 172.579 441.575 174.63 433.066C175.083 430.803 175.209 428.489 175.01 426.189ZM161.869 418.625L165.964 428.241C166.504 429.502 164.645 430.601 164.105 429.327C162.738 426.123 161.377 422.918 160.016 419.708C159.47 418.45 161.329 417.351 161.869 418.625ZM70.3141 424.883C74.4085 426.545 78.1091 429.047 81.1768 432.227C82.1364 433.226 80.6126 434.753 79.65 433.736C76.8553 430.806 73.4776 428.494 69.7347 426.95C68.4734 426.44 69.0317 424.361 70.3141 424.883Z" fill="white"/>
<path d="M403.681 265.242C399.514 263.242 350.743 240.937 350.218 240.587C350.044 240.465 349.835 240.402 349.623 240.408C349.41 240.414 349.205 240.488 349.038 240.62C348.927 240.706 348.836 240.815 348.77 240.94C348.166 241.688 343.079 252.886 340.547 258.972C334.8 235.074 327.203 211.658 317.826 188.937C325.151 182.508 331.731 175.275 337.439 167.375C339.484 165.074 340.826 162.235 341.305 159.194C341.664 153.075 334.364 150.54 328.511 152.3C322.331 154.149 317.784 158.721 312.56 162.203C307.204 165.769 300.723 167.351 296.327 162.619C294.507 160.63 292.932 158.43 291.637 156.065C291.637 156.065 275.892 131.147 272.957 126.235C267.021 116.295 257.821 115.179 253.126 120.26C251.516 122.078 250.38 124.265 249.816 126.627C249.253 128.989 249.281 131.454 249.897 133.803C251.874 139.86 254.593 145.649 257.993 151.038C259.122 153.193 261.502 156.56 258.808 158.518C256.84 159.949 254.061 158.193 252.278 157.185C243.736 152.357 236.092 142.43 226.358 140.86C217.116 139.352 212.394 150.362 216.612 158.117C222.013 167.346 229.151 175.441 237.631 181.955C239.991 183.85 239.203 185.334 236.343 185.232C227.538 184.909 217.574 178.31 208.489 180.244C202.511 181.517 201 187.887 203.568 193.267C206.367 198.218 210.872 201.982 216.241 203.859C222.031 206.272 228.093 207.884 233.235 211.631C251.587 225.011 253.479 253.713 258.802 272.282C266.849 268.833 275.342 266.538 284.031 265.463C286.297 265.161 288.596 265.695 290.494 266.971C291.2 267.588 291.774 268.341 292.182 269.185C292.589 270.029 292.822 270.947 292.866 271.884C293.258 279.071 285.747 282.553 280.051 285.764L267.878 292.65C269.29 294.7 270.845 296.648 272.531 298.479C283.539 298.763 289.779 297.574 297.576 297.933C314.428 298.7 315.505 312.749 303.49 318.017C310.384 320.476 317.568 322.031 324.862 322.643V295.673C324.866 294.275 325.151 292.891 325.7 291.605C326.249 290.319 327.051 289.157 328.058 288.187C329.067 287.219 330.26 286.463 331.567 285.965C332.874 285.468 334.267 285.238 335.665 285.29H393.687C397.753 279.459 401.227 273.238 404.058 266.718C404.082 266.648 404.101 266.576 404.115 266.504C404.206 266.276 404.212 266.023 404.134 265.791C404.053 265.56 403.892 265.366 403.681 265.242ZM294.773 171.641C293.487 176.984 290.862 181.912 287.147 185.961C283.431 190.01 278.746 193.046 273.533 194.785C272.214 195.226 271.653 193.147 272.963 192.709C277.817 191.072 282.175 188.227 285.627 184.442C289.08 180.656 291.512 176.055 292.697 171.071C293.016 169.722 295.095 170.296 294.773 171.644V171.641ZM339.455 277.312L339.066 268.936C338.999 267.548 341.154 267.557 341.22 268.936L341.609 277.312C341.664 278.7 339.521 278.694 339.455 277.312Z" fill="white"/>
<path d="M184.191 261.051C184.191 261.051 184.172 201.774 184.191 195.461C184.273 188.887 181.9 182.518 177.535 177.6C173.171 172.683 167.129 169.57 160.591 168.871C156.859 168.595 153.115 168.523 149.375 168.654C139.273 168.805 135.32 168.564 134.967 168.594C135.234 168.613 135.485 168.732 135.668 168.928C135.851 169.124 135.953 169.382 135.954 169.65C134.412 182.287 131.971 194.798 128.649 207.087C128.268 208.442 127.583 212.09 125.933 210.467C118.661 203.282 105.508 176.641 101.878 170.033C101.793 169.876 101.747 169.701 101.746 169.522C101.744 169.344 101.787 169.168 101.87 169.009C101.953 168.851 102.074 168.716 102.221 168.616C102.369 168.515 102.539 168.453 102.717 168.434C102.095 168.374 50.6569 168.111 49.2175 168.132C64.8168 169.961 79.5983 176.099 91.9052 185.857C114.017 204.203 129.083 232.174 178.041 258.354C179.266 259.008 178.177 260.867 176.955 260.212C166.516 254.631 156.522 248.255 147.061 241.142C110.698 213.822 102.539 191.656 76.5767 178.579C67.9815 174.167 58.6559 171.354 49.0546 170.278C47.8084 170.148 47.6968 168.374 48.7287 168.165C42.8208 168.181 37.0883 170.175 32.4453 173.828C27.8022 177.481 24.516 182.584 23.1107 188.322C21.9278 194.508 22.3382 179.982 22.3382 383.502C22.3501 383.784 22.4678 384.052 22.668 384.251C22.8681 384.451 23.136 384.568 23.4185 384.579C26.4359 384.694 29.4745 384.555 32.2354 384.428C56.5107 383.324 88.8757 378.227 112.892 373.837C136.907 369.447 129.566 370.946 183.27 358.092C186.279 358.729 189.335 359.118 192.41 359.248C191.915 359.16 191.366 358.768 191.438 358.198C196.251 319.647 195.871 298.887 200.708 271.739C200.782 271.477 200.954 271.252 201.188 271.112C201.421 270.971 201.7 270.924 201.966 270.982C195.622 268.487 189.643 265.147 184.191 261.054V261.051ZM114.678 309.547C117.245 312.882 120.504 315.621 124.231 317.577C125.459 318.226 124.367 320.087 123.145 319.439C119.107 317.284 115.583 314.28 112.816 310.634C111.977 309.529 113.848 308.461 114.678 309.547ZM98.1031 315.456C114.63 331.94 144.786 348.666 177.785 354.752C179.148 355.002 178.569 357.078 177.211 356.828C151.267 352.196 126.827 341.36 105.976 325.241C87.4032 310.646 82.2162 297.604 66.0669 283.926C59.3011 278.069 50.8276 274.549 41.9033 273.887C40.5213 273.797 40.5183 271.654 41.9033 271.733C67.9619 273.148 79.9532 297.348 98.1031 315.456ZM55.008 337.296C54.2748 336.113 56.1335 335.036 56.8698 336.207C64.1683 348.333 74.8283 358.081 87.5571 364.269C88.8124 364.872 87.7201 366.71 86.4708 366.13C73.4378 359.731 62.5172 349.723 55.008 337.296ZM60.8226 328.518C68.6606 340.219 79.4876 349.61 92.1798 355.714C93.4321 356.318 92.3367 358.173 91.0936 357.573C78.0779 351.287 66.9836 341.629 58.9639 329.604C58.1884 328.449 60.0562 327.374 60.8226 328.518Z" fill="#2323FF"/>
<path d="M311.382 306.412C310.347 300.133 303.024 298.181 297.584 297.933C287.536 297.475 274.144 300.088 260.128 297.028L280.043 285.758C285.852 282.469 293.254 279.098 292.858 271.878C292.816 270.941 292.584 270.023 292.176 269.178C291.768 268.334 291.194 267.581 290.487 266.965C288.588 265.69 286.29 265.154 284.023 265.456C260.907 268.326 254.588 277.2 236.822 277.291C224.941 277.245 213.162 275.1 202.027 270.954H201.961C201.694 270.896 201.416 270.943 201.182 271.083C200.948 271.224 200.777 271.449 200.703 271.712C195.851 298.944 196.294 319.227 191.433 358.17C191.361 358.741 191.91 359.133 192.405 359.22C192.441 359.22 192.477 359.244 192.51 359.247C209.164 360.723 226.233 359.175 242.63 362.829C257.654 366.179 260.958 369.926 276.7 371.685C279.359 371.996 282.052 371.846 284.66 371.242C286.935 370.586 288.951 369.244 290.434 367.398C291.917 365.552 292.793 363.294 292.943 360.931C292.928 357.162 290.058 354.42 287.605 351.897C280.252 344.353 274.989 343.068 265.24 337.054C263.816 336.176 261.531 335.174 261.178 333.349C261.096 332.499 261.258 331.642 261.644 330.881C262.03 330.119 262.625 329.482 263.36 329.046C265.834 327.586 264.567 328.108 289.225 321.979C294.076 321.021 298.846 319.693 303.495 318.008C309.901 315.199 312.031 310.341 311.382 306.412ZM236.933 297.007L247.235 295.498C248.593 295.299 249.172 297.375 247.805 297.577L237.506 299.086C236.149 299.285 235.566 297.2 236.933 297.007ZM238.107 331.903H248.424C248.709 331.903 248.983 332.017 249.185 332.219C249.387 332.421 249.501 332.695 249.501 332.981C249.501 333.266 249.387 333.54 249.185 333.742C248.983 333.944 248.709 334.058 248.424 334.058H238.107C237.889 334.067 237.673 334.009 237.488 333.892C237.304 333.775 237.16 333.604 237.075 333.403C237.019 333.269 236.989 333.125 236.989 332.98C236.989 332.835 237.018 332.691 237.074 332.557C237.13 332.423 237.213 332.301 237.317 332.199C237.42 332.098 237.543 332.017 237.678 331.964C237.816 331.914 237.961 331.893 238.107 331.9V331.903Z" fill="white"/>
<path d="M467.491 160.643C467.189 160.57 459.676 160.495 452.048 161.065C451.765 161.074 451.496 161.191 451.296 161.391C451.096 161.591 450.979 161.86 450.97 162.142C450.828 165.759 451.354 169.372 452.524 172.797C452.972 174.173 453.742 175.422 454.772 176.439C455.801 177.456 457.06 178.211 458.442 178.642C461.869 179.179 464.072 176.659 465.357 173.738C466.978 170.001 468.025 166.041 468.465 161.992C468.501 161.838 468.504 161.678 468.473 161.523C468.442 161.368 468.379 161.221 468.287 161.092C468.195 160.964 468.076 160.857 467.939 160.78C467.801 160.702 467.648 160.655 467.491 160.643Z" fill="white"/>
<path d="M134.971 168.597C134.929 168.597 103.288 168.374 102.73 168.428C102.552 168.446 102.381 168.507 102.233 168.607C102.085 168.707 101.964 168.842 101.881 169C101.798 169.158 101.755 169.335 101.757 169.513C101.758 169.692 101.805 169.868 101.891 170.024C106.079 177.658 118.668 203.276 125.946 210.458C126.531 211.037 127.506 210.941 127.974 209.462C128.158 208.886 129.18 205.238 129.986 202.078C132.599 191.394 134.592 180.567 135.955 169.653C135.954 169.385 135.852 169.128 135.67 168.932C135.487 168.736 135.238 168.617 134.971 168.597Z" fill="white"/>
<path d="M411.455 346.083C409.817 346.505 414.877 346.384 344.405 346.384C341.938 346.382 339.572 345.401 337.827 343.656C336.083 341.911 335.101 339.546 335.099 337.079V303.902C335.099 302.68 335.339 301.47 335.807 300.341C336.274 299.212 336.96 298.186 337.824 297.322C338.688 296.458 339.714 295.773 340.843 295.306C341.973 294.838 343.183 294.598 344.405 294.599H409.256C410.478 294.599 411.688 294.839 412.817 295.306C413.946 295.774 414.971 296.459 415.836 297.323C416.7 298.187 417.385 299.212 417.853 300.341C418.321 301.47 418.561 302.68 418.561 303.902V316.97C421.347 310.595 425.447 301.883 428.745 295.691C428.756 294.309 428.49 292.937 427.962 291.659C427.434 290.381 426.654 289.222 425.67 288.25C424.685 287.28 423.515 286.518 422.228 286.009C420.942 285.501 419.567 285.256 418.184 285.29H335.681C334.284 285.236 332.889 285.464 331.582 285.962C330.275 286.459 329.082 287.216 328.074 288.187C327.065 289.156 326.262 290.318 325.713 291.604C325.164 292.891 324.88 294.275 324.879 295.673V354.015C324.085 354.697 303.591 375.596 297.342 381.613C293.618 385.201 294.895 392.433 303.567 391.761C303.567 391.761 379.561 391.957 383.345 391.709C386.965 391.47 390.493 390.461 393.692 388.749C399.301 385.352 398.821 384.929 428.48 355.488C428.926 354.821 428.781 355.379 428.781 349.586C420.324 354.399 413.676 351.58 411.455 346.083ZM387.901 378.427H314.879C314.593 378.427 314.32 378.313 314.117 378.111C313.915 377.909 313.802 377.635 313.802 377.349C313.802 377.064 313.915 376.79 314.117 376.588C314.32 376.386 314.593 376.272 314.879 376.272H387.901C388.043 376.272 388.183 376.299 388.314 376.353C388.445 376.407 388.564 376.487 388.664 376.587C388.764 376.687 388.843 376.806 388.897 376.937C388.951 377.068 388.979 377.208 388.978 377.349C388.979 377.491 388.951 377.631 388.897 377.762C388.843 377.893 388.764 378.012 388.664 378.112C388.564 378.212 388.445 378.291 388.314 378.345C388.183 378.399 388.043 378.427 387.901 378.427ZM399.274 366.755H325.347C325.061 366.755 324.787 366.642 324.585 366.44C324.383 366.238 324.269 365.964 324.269 365.678C324.269 365.392 324.383 365.118 324.585 364.916C324.787 364.714 325.061 364.601 325.347 364.601H399.274C399.416 364.6 399.556 364.628 399.687 364.682C399.817 364.736 399.936 364.815 400.037 364.915C400.137 365.015 400.216 365.134 400.27 365.265C400.324 365.396 400.352 365.536 400.351 365.678C400.352 365.819 400.324 365.96 400.27 366.091C400.216 366.221 400.137 366.34 400.037 366.44C399.936 366.541 399.817 366.62 399.687 366.674C399.556 366.728 399.416 366.756 399.274 366.755Z" fill="#2323FF"/>
<path d="M418.554 303.902C418.555 302.68 418.314 301.47 417.847 300.34C417.379 299.211 416.694 298.186 415.83 297.322C414.965 296.458 413.939 295.773 412.81 295.305C411.681 294.838 410.471 294.598 409.249 294.599H344.401C343.179 294.598 341.968 294.837 340.839 295.305C339.71 295.772 338.683 296.457 337.819 297.321C336.955 298.185 336.269 299.211 335.802 300.34C335.334 301.469 335.094 302.68 335.095 303.902V337.069C335.096 338.91 335.641 340.71 336.663 342.242C337.685 343.773 339.137 344.968 340.837 345.675C341.966 346.143 343.179 346.384 344.401 346.384C414.463 346.384 409.816 346.511 411.451 346.082C409.396 341.113 411.373 334.345 413.395 329.363C416.961 320.57 415.884 323.083 418.554 316.97V303.902Z" fill="white"/>
<path d="M571.125 247.186C571.062 246.959 570.926 246.76 570.739 246.617C570.551 246.475 570.322 246.398 570.087 246.398C545.857 248.161 517.991 249.19 508.353 249.322C508.118 249.324 507.89 249.402 507.702 249.544C507.515 249.687 507.379 249.886 507.315 250.113C505.721 262.729 505.427 275.475 506.437 288.151C480.185 284.768 485.81 284.557 457.449 282.547C451.444 282.071 445.406 282.851 439.719 284.838C437.255 285.822 435.014 287.29 433.128 289.156C431.243 291.022 429.751 293.247 428.741 295.7C423.028 306.642 417.906 317.882 413.397 329.372C412.274 332.13 411.425 334.992 410.863 337.917C408.56 350.035 419.312 358.095 433.494 346.267C438.913 341.87 443.577 336.618 447.301 330.718C447.205 335.809 448.556 340.823 451.197 345.177C457.147 354.875 472.766 352.35 477.017 342.447C477.278 344.527 477.995 346.524 479.119 348.295C480.242 350.065 481.743 351.565 483.514 352.688C486.455 354.289 489.853 354.844 493.151 354.262C496.449 353.68 499.451 351.995 501.667 349.483C503.997 346.053 504.876 341.84 504.114 337.763C512.048 340.645 520.276 342.64 528.648 343.714C535.432 344.667 542.345 343.835 548.708 341.3C560.537 336.3 568.02 323.572 570.184 311.473C573.836 290.223 574.153 268.534 571.125 247.186ZM549.08 331.976C551.53 330.329 553.75 328.361 555.679 326.125C556.741 324.9 558.515 326.686 557.456 327.902C555.374 330.289 552.985 332.389 550.35 334.146C548.998 335.048 547.755 332.872 549.08 331.976ZM531.035 294.258C524.156 292.685 517.176 291.588 510.146 290.975C508.543 290.833 508.534 288.32 510.146 288.462C517.399 289.092 524.602 290.218 531.702 291.835C533.271 292.182 532.61 294.605 531.035 294.246V294.258ZM478.188 326.943C479.766 323.844 480.898 320.537 481.549 317.121C481.851 315.531 484.283 316.216 483.963 317.791C483.251 321.417 482.032 324.924 480.342 328.21C479.621 329.641 477.449 328.367 478.188 326.931V326.943ZM449.018 317.07L452.678 306.919C453.225 305.41 455.651 306.062 455.092 307.589L451.432 317.74C450.895 319.227 448.481 318.582 449.018 317.058V317.07Z" fill="white"/>
<path d="M126.414 131.03C125.618 125.031 118.976 122.125 113.648 123.009C111.488 123.577 109.509 124.686 107.898 126.232C106.287 127.778 105.097 129.71 104.441 131.845C103.078 134.631 102.548 137.753 102.915 140.833C103.162 141.871 103.616 142.849 104.248 143.708C104.88 144.568 105.679 145.291 106.596 145.836C108.582 147.213 110.914 148.003 113.328 148.116C115.741 148.229 118.138 147.661 120.244 146.476C125.536 143.413 127.123 136.386 126.414 131.03ZM119.115 138.377C118.762 139.174 118.188 139.853 117.462 140.335C116.735 140.816 115.886 141.079 115.015 141.093C114.122 140.909 113.317 140.433 112.726 139.739C112.136 139.045 111.794 138.174 111.756 137.264C111.529 135.906 113.605 135.327 113.832 136.691C113.958 137.448 114.206 138.803 115.162 138.954C116.119 139.104 116.846 137.979 117.253 137.294C117.328 137.173 117.426 137.068 117.541 136.986C117.657 136.903 117.788 136.844 117.926 136.813C118.065 136.781 118.208 136.778 118.348 136.802C118.488 136.827 118.622 136.879 118.741 136.956C118.97 137.103 119.136 137.331 119.205 137.594C119.274 137.857 119.242 138.137 119.115 138.377Z" fill="white"/>
<path d="M127.125 107.925C131.268 104.769 134.098 103.215 133.534 100.107C133.254 98.9804 132.623 97.9718 131.734 97.2262C130.844 96.4807 129.74 96.0366 128.582 95.9579C125.439 95.7395 122.322 96.6572 119.798 98.5438C119.886 98.2964 119.986 98.055 120.067 97.8076C121.383 94.5669 120.571 90.3787 117.031 89.5398C113.447 89.0178 111.093 92.0654 110.173 95.5264C108.875 99.4627 107.792 103.467 106.929 107.521C106.384 109.315 106.12 111.183 106.145 113.058C106.34 114.732 107.131 116.281 108.373 117.421C109.615 118.561 111.225 119.218 112.91 119.271C119.135 119.449 125.384 119.509 131.618 119.271C133.754 119.192 136.262 119.056 137.324 116.857C139.563 112.18 134.026 106.413 127.125 107.925Z" fill="black"/>
<path d="M75.3431 519.03C64.5027 516.269 54.1678 511.809 44.7221 505.817C38.3946 501.797 33.1836 496.245 29.5715 489.676C23.604 479.131 18.6436 468.048 14.7559 456.572L14.7258 456.521C14.2912 455.383 12.5502 455.775 12.6437 456.853C12.6437 469.852 11.0686 483.584 15.5314 496.079C20.4951 509.993 32.239 517.95 46.4571 519.996C55.9198 521.423 65.5123 521.806 75.0594 521.139C76.2061 521.058 76.5923 519.338 75.3431 519.03Z" fill="black"/>
<path d="M389.995 410.749C390.137 410.75 390.277 410.723 390.408 410.669C390.539 410.615 390.658 410.536 390.759 410.435C390.859 410.335 390.938 410.216 390.992 410.085C391.046 409.954 391.073 409.814 391.072 409.672C391.073 409.53 391.045 409.39 390.991 409.259C390.937 409.128 390.858 409.009 390.758 408.909C390.657 408.809 390.539 408.73 390.408 408.676C390.277 408.622 390.137 408.594 389.995 408.595H184.688C184.403 408.595 184.129 408.708 183.927 408.91C183.725 409.112 183.611 409.386 183.611 409.672C183.611 409.958 183.725 410.232 183.927 410.434C184.129 410.636 184.403 410.749 184.688 410.749C252.861 411.983 321.427 411.989 389.995 410.749Z" fill="#2323FF"/>
<path d="M357.352 544.732C335.28 540.687 313.199 536.69 291.11 532.741V421.645C291.11 421.36 290.997 421.085 290.795 420.883C290.593 420.681 290.319 420.568 290.033 420.568C289.747 420.568 289.473 420.681 289.271 420.883C289.069 421.085 288.956 421.36 288.956 421.645V532.759C285.127 533.508 271.231 536.742 222.346 543.894C220.979 544.093 221.561 546.169 222.919 545.97C234.15 544.331 274.481 538.155 290.111 534.73C307.857 537.47 339.899 543.526 356.779 546.799C358.133 547.074 358.713 544.998 357.352 544.732Z" fill="#2323FF"/>
<path d="M315.203 64.9476C296.679 64.8149 298.23 64.8118 297.684 65.2675C297.217 65.8891 297.099 62.8535 297.364 100.128C297.367 100.413 297.481 100.686 297.683 100.887C297.884 101.089 298.157 101.203 298.442 101.205H315.2C315.485 101.202 315.758 101.088 315.96 100.886C316.162 100.685 316.277 100.413 316.281 100.128V66.0309C316.279 65.7448 316.165 65.4708 315.964 65.2677C315.763 65.0645 315.49 64.9486 315.203 64.9446V64.9476Z" fill="white"/>
<path d="M343.932 54.7729C324.62 54.6341 326.355 54.6432 325.827 55.0928C325.341 55.7385 325.166 51.9879 325.526 100.128C325.528 100.413 325.642 100.686 325.844 100.887C326.045 101.089 326.318 101.203 326.603 101.205H343.959C344.243 101.201 344.515 101.086 344.716 100.885C344.917 100.684 345.032 100.412 345.036 100.128V55.8502C345.033 55.6349 344.966 55.4254 344.844 55.2479C344.722 55.0703 344.551 54.9324 344.351 54.8514C344.218 54.798 344.076 54.7714 343.932 54.7729Z" fill="white"/>
<path d="M382.242 32.0275C358.618 31.8585 360.438 31.8917 359.934 32.3473C359.445 32.9991 359.098 27.5194 359.632 100.128C359.634 100.413 359.749 100.686 359.95 100.887C360.152 101.089 360.424 101.203 360.709 101.205H382.257C382.541 101.201 382.812 101.086 383.013 100.885C383.214 100.684 383.329 100.412 383.334 100.128V33.1047C383.329 32.8179 383.212 32.5443 383.008 32.3429C382.804 32.1415 382.529 32.0282 382.242 32.0275Z" fill="#2323FF"/>
<path d="M388.081 1.11679C378.106 5.60138 367.77 9.23523 357.183 11.9796C356.914 12.0621 356.688 12.2459 356.553 12.4921C356.418 12.7382 356.384 13.0274 356.458 13.2982C356.535 13.5671 356.713 13.7959 356.955 13.9365C357.197 14.0771 357.484 14.1187 357.756 14.0525C364.965 12.21 372.053 9.92446 378.981 7.209C344.421 26.9655 308.134 43.5343 270.57 56.7101C269.269 57.1627 269.831 59.2508 271.143 58.7891C308.555 45.6555 344.709 29.1812 379.168 9.56562C374.436 14.1793 369.645 18.7356 364.512 22.8816C363.435 23.7536 364.968 25.2714 366.036 24.3903C372.943 18.808 381.576 10.3532 388.953 2.99665C389.141 2.84839 389.273 2.64093 389.328 2.40807C389.382 2.17521 389.357 1.93066 389.255 1.71424C389.156 1.49641 388.986 1.31867 388.773 1.21012C388.559 1.10158 388.316 1.06867 388.081 1.11679Z" fill="#2323FF"/>
<path d="M512.658 61.5382C513.319 60.3313 511.451 59.2299 510.797 60.4519L495.197 89.2353C494.536 90.4423 496.403 91.5436 497.055 90.3216C498.817 87.0718 512.01 62.7452 512.658 61.5382Z" fill="black"/>
<path d="M506.05 96.3412L529.526 79.4647C530.642 78.662 529.568 76.7912 528.439 77.6029L504.964 94.4794C503.847 95.2821 504.921 97.1438 506.05 96.3412Z" fill="black"/>
<path d="M48.9405 111.039C51.5958 99.8596 61.0102 83.5654 71.351 77.7568C71.5808 77.6042 71.7436 77.3694 71.8059 77.1007C71.8681 76.8319 71.8252 76.5495 71.6859 76.3113C71.5465 76.0732 71.3214 75.8974 71.0565 75.82C70.7917 75.7426 70.5073 75.7695 70.2617 75.8951C65.301 78.8823 61.0585 82.9257 57.8268 87.7294C52.85 94.5971 49.1359 102.296 46.8584 110.466C46.5567 111.815 48.6236 112.391 48.9405 111.039Z" fill="black"/>
<path d="M60.1166 69.1327C61.0882 68.1369 59.5584 66.6101 58.6079 67.624C47.7664 79.6684 39.2109 93.5879 33.361 108.7C32.9114 110.016 34.9844 110.58 35.437 109.274C41.1804 94.5169 49.5411 80.9185 60.1166 69.1327Z" fill="black"/>
<path d="M60.8201 328.518C60.0537 327.368 58.1859 328.449 58.9614 329.604C66.981 341.63 78.0753 351.287 91.091 357.573C92.3342 358.176 93.4296 356.318 92.1773 355.714C79.4851 349.61 68.6581 340.219 60.8201 328.518Z" fill="black"/>
<path d="M86.471 366.13C87.7202 366.71 88.8125 364.86 87.5573 364.269C74.8296 358.079 64.17 348.331 56.8699 336.206C56.1337 335.036 54.275 336.113 55.0082 337.296C62.5174 349.722 73.438 359.731 86.471 366.13Z" fill="black"/>
<path d="M467.059 242.192L456.105 191.146C455.864 190.036 454.352 190.214 454.026 191.146C452.895 194.393 436.091 242.512 435.635 243.951C435.246 245.188 436.54 246.413 437.207 247.373C448.827 264.391 448.106 263.408 448.372 263.592C448.462 263.696 448.573 263.78 448.699 263.837C448.824 263.894 448.961 263.924 449.099 263.923C449.237 263.923 449.374 263.893 449.5 263.836C449.625 263.779 449.738 263.695 449.829 263.592C453.492 259.337 464.799 246.996 466.642 244.953C467.599 243.867 467.391 243.728 467.059 242.189V242.192Z" fill="#2323FF"/>
<path d="M117.255 137.276C116.848 137.961 116.114 139.086 115.164 138.935C114.213 138.785 113.957 137.427 113.833 136.672C113.607 135.309 111.531 135.888 111.757 137.246C111.795 138.156 112.136 139.028 112.727 139.723C113.317 140.417 114.123 140.894 115.016 141.078C115.887 141.063 116.736 140.8 117.463 140.318C118.189 139.837 118.763 139.159 119.117 138.362C119.247 138.116 119.278 137.829 119.202 137.561C119.126 137.293 118.95 137.065 118.709 136.924C118.469 136.783 118.184 136.74 117.913 136.805C117.642 136.869 117.406 137.036 117.255 137.27V137.276Z" fill="black"/>
<path d="M270.753 523.81C256.126 517.075 240.362 513.155 224.284 512.256C206.98 511.755 189.84 515.735 174.527 523.81C174.329 523.933 174.177 524.117 174.092 524.335C174.007 524.552 173.994 524.791 174.055 525.016C174.116 525.241 174.248 525.44 174.432 525.584C174.615 525.728 174.84 525.81 175.073 525.816H270.21C271.205 525.816 271.77 524.265 270.753 523.81Z" fill="black"/>
<path d="M467.706 502.663C448.093 493.883 425.127 488.732 403.736 492.069C395.179 488.786 386.288 486.448 377.222 485.096C359.903 482.187 342.115 484.2 325.883 490.904C322.425 492.236 319.045 493.762 315.76 495.476C315.563 495.602 315.411 495.786 315.326 496.004C315.241 496.221 315.227 496.46 315.286 496.686C315.345 496.913 315.476 497.115 315.659 497.261C315.843 497.408 316.069 497.491 316.303 497.498H383.085C379.111 498.978 375.232 500.703 371.471 502.663C371.272 502.786 371.118 502.97 371.033 503.188C370.948 503.406 370.937 503.645 371 503.87C371.062 504.095 371.193 504.294 371.377 504.438C371.56 504.582 371.784 504.663 372.017 504.67H467.169C468.159 504.67 468.726 503.119 467.706 502.663Z" fill="black"/>
<path d="M543.977 365.943C544.122 364.564 541.973 364.576 541.823 365.943C540.643 376.239 537.074 386.117 531.4 394.79C525.73 403.465 518.112 410.696 509.153 415.906C508.868 416.144 508.638 416.441 508.479 416.777C508.319 417.112 508.234 417.478 508.229 417.849C514.162 440.293 520.55 471.801 524.759 494.371C525.012 495.732 527.091 495.156 526.838 493.798C522.077 468.272 516.596 442.885 510.402 417.668C519.645 412.262 527.495 404.769 533.325 395.788C539.154 386.807 542.802 376.586 543.977 365.943Z" fill="#2323FF"/>
<path d="M22.4508 416.024C23.519 416.887 25.0488 415.375 23.9595 414.515C15.7733 407.811 9.54633 399.023 5.93429 389.078C2.32225 379.132 1.45882 368.396 3.4349 358.001C3.70647 356.647 1.62444 356.067 1.35589 357.428C-0.718795 368.189 0.145453 379.311 3.8577 389.622C7.56994 399.934 13.9929 409.054 22.4508 416.024Z" fill="#2323FF"/>
<path d="M239.284 394.497C239.909 395.738 241.768 394.648 241.143 393.411L236.433 384.096C235.808 382.856 233.949 383.945 234.574 385.182L239.284 394.497Z" fill="white"/>
<path d="M378.447 317.263C378.372 314.052 378.351 310.815 378.372 307.607C380.647 307.71 383.022 307.969 385.279 308.144C386.661 308.253 386.655 306.095 385.279 305.99C383.018 305.815 380.662 305.598 378.396 305.483C378.396 304.46 378.417 303.446 378.441 302.441C378.441 302.3 378.414 302.16 378.36 302.029C378.306 301.898 378.227 301.779 378.126 301.679C378.026 301.579 377.907 301.499 377.776 301.445C377.646 301.391 377.505 301.364 377.364 301.364C377.222 301.364 377.082 301.391 376.951 301.445C376.82 301.499 376.701 301.579 376.601 301.679C376.501 301.779 376.422 301.898 376.368 302.029C376.314 302.16 376.286 302.3 376.287 302.441C376.256 303.407 376.235 304.406 376.22 305.429C367.605 305.429 364.869 312.761 368.462 316.291C370.203 318.008 372.738 318.072 376.344 318.914C376.468 323.06 376.673 327.181 376.92 330.944C374.2 330.7 371.6 329.704 369.413 328.068C368.296 327.248 367.213 329.122 368.324 329.93C370.884 331.792 373.916 332.897 377.074 333.12C377.116 333.675 377.15 334.221 377.192 334.755C377.306 336.125 379.461 336.137 379.349 334.755C379.304 334.216 379.261 333.677 379.223 333.138C388.942 332.251 389.437 320.863 378.447 317.263ZM370.647 315.262C370.248 315.01 369.905 314.676 369.641 314.284C369.378 313.892 369.198 313.449 369.115 312.983C369.031 312.518 369.046 312.04 369.157 311.581C369.268 311.121 369.473 310.69 369.76 310.314C370.546 309.39 371.537 308.663 372.655 308.191C373.773 307.719 374.986 307.516 376.196 307.598C376.178 310.54 376.196 313.633 376.287 316.756C374.345 316.529 372.446 316.026 370.647 315.262ZM379.066 331.023C378.818 327.344 378.628 323.479 378.507 319.556C386.323 322.272 386.256 330.627 379.081 331.023H379.066Z" fill="#2323FF"/>
<path d="M399.274 364.6H325.347C325.061 364.6 324.787 364.714 324.585 364.916C324.383 365.118 324.27 365.392 324.27 365.678C324.27 365.963 324.383 366.237 324.585 366.439C324.787 366.641 325.061 366.755 325.347 366.755H399.274C399.559 366.753 399.833 366.639 400.034 366.438C400.236 366.236 400.35 365.963 400.351 365.678C400.352 365.536 400.324 365.396 400.27 365.265C400.216 365.134 400.137 365.015 400.037 364.915C399.937 364.815 399.818 364.736 399.687 364.682C399.556 364.628 399.416 364.6 399.274 364.6Z" fill="white"/>
<path d="M387.899 376.272H314.877C314.605 376.292 314.351 376.415 314.166 376.614C313.98 376.814 313.877 377.077 313.877 377.349C313.877 377.622 313.98 377.884 314.166 378.084C314.351 378.284 314.605 378.406 314.877 378.426H387.899C388.04 378.427 388.181 378.399 388.311 378.345C388.442 378.291 388.561 378.212 388.661 378.112C388.761 378.012 388.841 377.893 388.895 377.762C388.949 377.631 388.976 377.491 388.976 377.349C388.975 377.064 388.861 376.79 388.66 376.588C388.458 376.387 388.184 376.273 387.899 376.272Z" fill="white"/>
<path d="M292.698 171.071C291.515 176.056 289.082 180.657 285.63 184.443C282.178 188.228 277.819 191.073 272.964 192.709C271.655 193.147 272.216 195.226 273.535 194.785C278.747 193.046 283.432 190.01 287.147 185.962C290.863 181.913 293.488 176.986 294.774 171.644C295.097 170.295 293.018 169.722 292.698 171.071Z" fill="white"/>
<path d="M341.611 277.312L341.221 268.936C341.155 267.557 339.001 267.548 339.067 268.936L339.456 277.312C339.523 278.694 341.665 278.7 341.611 277.312Z" fill="white"/>
<path d="M445.942 141.422C448.89 141.924 451.89 142.051 454.87 141.799C455.389 141.748 455.956 141.615 456.512 141.521C456.546 144.537 456.049 147.535 455.042 150.378C454.994 150.564 454.988 150.758 455.026 150.947C455.064 151.136 455.143 151.313 455.26 151.467C455.376 151.62 455.525 151.745 455.697 151.832C455.868 151.92 456.057 151.967 456.249 151.971C459.342 152.071 462.418 151.483 465.256 150.251C467.818 149.14 469.899 147.151 471.125 144.643C472.35 142.134 472.64 139.27 471.943 136.567C471.479 134.775 470.597 133.118 469.369 131.733C462.462 123.67 444.587 125.306 445.018 140.197C445.019 140.473 445.109 140.742 445.276 140.963C445.442 141.184 445.676 141.345 445.942 141.422ZM453.401 130.312C455.816 129.375 458.455 129.181 460.982 129.753C463.508 130.325 465.806 131.637 467.583 133.522C468.542 134.646 469.218 135.984 469.553 137.423C469.888 138.862 469.873 140.361 469.509 141.793C469.144 143.225 468.442 144.549 467.46 145.653C466.478 146.757 465.245 147.61 463.865 148.139C461.95 148.885 459.93 149.329 457.879 149.454C458.95 146.368 459.26 143.069 458.784 139.838C458.708 139.575 458.549 139.344 458.332 139.177C458.115 139.011 457.85 138.919 457.577 138.914C455.854 139.198 454.113 139.37 452.366 139.424C450.766 139.436 449.167 139.334 447.58 139.122C447.542 137.237 448.078 135.384 449.118 133.81C450.158 132.237 451.651 131.016 453.401 130.312Z" fill="black"/>
<path d="M505.177 166.409C499.143 144.08 495.962 128.359 486.551 116.878C479.762 108.592 468.829 102.641 457.906 104.488C446.709 106.38 438.896 116.322 435.74 126.657C433.984 132.904 433.157 139.375 433.284 145.863C433.278 151.65 433.65 157.43 434.397 163.168C411.127 167.453 400.047 173.959 389.377 184.462C385.79 187.993 382.178 191.463 378.837 195.241C371.049 204.406 363.971 214.151 357.664 224.392C351.128 235.284 345.419 246.652 340.585 258.399C334.86 234.72 327.318 211.517 318.027 188.998C325.338 182.583 331.899 175.36 337.583 167.468C339.633 165.134 340.98 162.268 341.469 159.2C341.538 157.79 341.166 156.393 340.405 155.204C339.645 154.015 338.533 153.091 337.224 152.562C327.656 148.479 319.008 157.667 312.457 162.04C307.161 165.57 300.773 167.145 296.44 162.483C294.657 160.484 293.094 158.299 291.778 155.966C288.722 150.794 276.033 131.048 273.1 126.135C267.129 116.154 257.793 114.947 252.986 120.137C251.354 121.977 250.201 124.192 249.63 126.585C249.059 128.978 249.087 131.474 249.712 133.854C251.693 139.926 254.417 145.729 257.823 151.132C258.9 153.184 261.272 156.476 258.701 158.374C256.815 159.765 254.069 158.005 252.364 157.037C243.78 152.179 236.07 142.2 226.399 140.697C217.217 139.128 212.115 149.97 216.442 158.217C221.819 167.48 228.971 175.591 237.488 182.085C238.179 182.64 239.178 183.273 238.695 184.302C238.27 185.208 237.166 185.087 236.324 185.057C227.308 184.686 217.582 178.117 208.421 180.078C207.077 180.35 205.828 180.972 204.8 181.88C203.773 182.789 203.003 183.952 202.568 185.253C201.865 187.969 202.16 190.844 203.394 193.361C206.218 198.351 210.76 202.145 216.173 204.036C221.952 206.45 227.993 208.05 233.125 211.791C251.384 225.086 253.369 253.915 258.571 272.158C251.724 275.245 244.327 276.928 236.819 277.11C218.629 277.11 199.26 272.234 184.366 260.957V195.461C184.457 188.836 182.067 182.417 177.668 177.464C173.268 172.511 167.175 169.381 160.586 168.69C156.854 168.417 153.11 168.345 149.37 168.473C148.939 168.473 48.8895 167.93 48.7144 167.966C42.7733 168.011 37.016 170.031 32.3487 173.708C27.6814 177.384 24.3692 182.508 22.9334 188.273C22.2177 192.002 21.9573 195.803 22.158 199.595C22.158 397.967 21.8743 383.399 22.7434 387.53C26.3643 404.621 43.0266 416.358 58.6509 424.041C51.0168 426.907 43.2619 429.472 35.7606 432.674C31.2162 434.21 27.0735 436.744 23.6365 440.091C21.5198 442.412 20.2825 445.401 20.1393 448.539C19.7289 460.911 33.1807 483.581 41.3911 493.231C43.8041 496.389 46.9746 498.888 50.6094 500.497C52.8182 500.995 55.1054 501.04 57.3323 500.626C60.235 500.17 63.101 499.505 65.9078 498.635C96.4051 489.978 136.084 478.358 160.477 455.914C162.728 458.162 162.034 457.148 174.484 492.881C175.486 496.397 177.148 499.69 179.382 502.585C184.605 508.602 193.663 508.215 200.914 508.318C209.977 508.477 219.042 508.156 228.071 507.355C239.573 506.305 252.793 503.526 259.434 494.139C261.554 490.614 262.602 486.548 262.452 482.437C263.363 458.494 261.779 434.52 257.717 410.906H255.165C259.217 434.578 260.815 458.606 259.932 482.606C260.081 486.631 258.878 490.59 256.516 493.852C251.658 499.688 243.716 502.358 236.499 503.713C223.593 505.602 210.54 506.278 197.51 505.732C193.846 505.769 190.192 505.315 186.648 504.383C184.994 503.822 183.472 502.933 182.171 501.769C180.87 500.605 179.817 499.19 179.077 497.609C175.598 489.948 176.059 488.557 165.8 460.38C165.038 458.107 163.825 456.011 162.234 454.218C168.472 448.623 172.849 441.252 174.774 433.096C175.226 430.818 175.356 428.488 175.16 426.174C174.619 421.244 173.139 416.463 170.8 412.089C162.524 396.049 151.667 381.479 138.664 368.96C145.77 367.337 177.749 359.588 179.315 359.205L210.265 367.729C220.862 370.647 232.624 373.094 241.106 380.581C249.075 387.611 252.573 398.027 254.685 408.401H184.683C184.443 408.414 184.212 408.495 184.016 408.636C183.82 408.776 183.669 408.969 183.58 409.192C183.49 409.415 183.466 409.659 183.511 409.896C183.556 410.132 183.667 410.351 183.832 410.526C184.055 410.761 184.36 410.9 184.683 410.915H321.922C321.995 421.651 322.707 432.375 324.053 443.027C324.246 445.603 324.611 448.168 325.142 450.697C327.821 462.26 339.698 473.379 355.096 474.646C362.224 475.187 369.387 474.215 376.112 471.792C382.838 469.369 388.975 465.551 394.121 460.588C396.698 464.765 400.114 468.361 404.154 471.149C407.518 473.554 411.261 475.38 415.228 476.55C432.913 481.843 455.963 482.727 471.089 471.976C486.928 460.736 486.264 445.039 498.651 416.174C500.205 412.296 502.342 408.678 504.987 405.444C510.482 399.059 523.671 390.749 528.949 376.574C532.796 366.242 531.643 354.64 528.895 343.919C535.633 344.842 542.497 343.997 548.81 341.466C561.066 336.116 568.26 323.222 570.366 311.533C575.309 284.047 574.914 247.457 564.147 219.944C553.84 193.632 531.312 175.153 505.177 166.409ZM435.876 142.103C436.25 132.725 438.205 122.882 444.391 115.508C446.878 112.245 450.212 109.728 454.031 108.23C457.849 106.733 462.006 106.312 466.047 107.014C474.526 108.869 481.94 113.975 486.696 121.235C493.938 131.772 496.653 144.409 502.329 165.51C489.415 161.795 476.007 160.083 462.574 160.434C453.948 160.533 445.342 161.293 436.832 162.71C435.936 155.88 435.616 148.987 435.876 142.103ZM465.945 162.969C465.528 165.88 464.801 168.738 463.775 171.493C462.967 173.566 461.557 176.967 458.811 176.37C454.433 175.416 453.244 167.839 453.314 163.334C457.518 163.062 461.731 162.941 465.945 162.972V162.969ZM235.569 210.497C230.662 206.957 225.183 204.287 219.372 202.603C213.905 201.009 209.163 197.565 205.956 192.86C205.3 191.742 204.891 190.496 204.759 189.206C204.627 187.917 204.774 186.613 205.19 185.386C205.887 184.258 206.895 183.355 208.092 182.785C209.289 182.215 210.625 182.002 211.94 182.172C219.598 182.103 225.82 186.466 235.246 187.495C237.528 187.7 240.074 187.606 241.049 185.15C241.251 184.644 241.342 184.1 241.316 183.556C241.29 183.011 241.148 182.479 240.898 181.994C240.168 180.969 239.245 180.095 238.182 179.42C231.19 173.839 225.14 167.171 220.262 159.671C218.851 157.779 217.893 155.588 217.462 153.268C217.223 151.372 217.477 149.446 218.198 147.677C218.86 145.904 220.199 144.466 221.921 143.68C223.643 142.893 225.606 142.822 227.38 143.482C232.142 145.114 236.512 147.72 240.21 151.135C243.959 154.52 248.074 157.476 252.479 159.949C253.482 160.637 254.634 161.079 255.84 161.236C257.047 161.393 258.273 161.262 259.419 160.854C260.507 160.302 261.378 159.399 261.89 158.291C262.402 157.184 262.527 155.936 262.243 154.75C259.431 146.096 247.075 133.395 253.659 123.29C254.706 121.6 256.344 120.36 258.254 119.811C259.475 119.581 260.73 119.598 261.944 119.863C263.158 120.127 264.307 120.633 265.321 121.35C267.68 123.008 269.646 125.165 271.079 127.668C291.733 162.631 291.504 160.468 293.709 163.253C295.463 165.458 297.907 167.011 300.649 167.661C310.133 169.306 317.094 161.059 324.641 156.497C332.396 151.82 338.823 154.59 338.959 158.579C338.568 161.603 337.212 164.42 335.091 166.611C329.423 174.363 322.897 181.448 315.637 187.733C315.478 187.885 315.363 188.078 315.306 188.291C315.249 188.504 315.252 188.729 315.314 188.94C325.214 212.851 333.151 237.527 339.046 262.726C339.348 264.053 341.047 263.782 341.46 262.726C344.135 256.103 347.054 249.582 350.211 243.176C350.513 243.308 399.634 265.891 401.456 266.754C398.55 273.182 395.039 279.319 390.97 285.082H335.673C332.869 284.977 330.138 285.987 328.078 287.891C326.02 289.798 324.804 292.444 324.695 295.248V320.256C318.505 319.704 312.396 318.46 306.482 316.548C314.856 311.161 314.026 298.47 297.59 297.722C290.188 297.384 285.647 298.286 275.623 298.325C273.566 296.258 271.686 294.022 270.001 291.642C285.17 283.066 284.98 283.235 286.778 282.037C294.473 276.908 294.268 269.967 290.623 266.814C288.689 265.509 286.344 264.959 284.032 265.269C276.078 266.157 268.29 268.174 260.904 271.259C255.512 252.264 254 225.349 235.569 210.497ZM409.229 293.34C403.076 293.271 347.444 293.34 347.444 293.34C344.599 293.042 341.726 293.527 339.137 294.744C337.535 295.679 336.205 297.016 335.276 298.621C334.347 300.227 333.851 302.047 333.838 303.902C333.838 303.902 333.693 334.64 333.838 337.57C333.988 340.363 335.232 342.984 337.3 344.867C339.368 346.749 342.094 347.742 344.888 347.63C414.893 346.936 409.905 347.781 411.83 347.277C413.325 349.649 415.678 351.352 418.397 352.033C421.117 352.715 423.995 352.321 426.431 350.934V353.348C426.431 353.348 328.153 353.276 327.188 353.288V295.673C327.215 293.54 328.077 291.504 329.589 289.999C331.101 288.495 333.142 287.643 335.275 287.625H417.008C418.254 287.556 419.503 287.671 420.716 287.966C422.4 288.496 423.866 289.557 424.896 290.989C425.927 292.422 426.465 294.15 426.431 295.914V299.798C424.105 304.39 421.905 309.046 419.793 313.741V304.442C419.887 302.289 419.325 300.158 418.182 298.331C417.039 296.505 415.368 295.069 413.39 294.213C412.076 293.644 410.661 293.348 409.229 293.34ZM410.864 344.939C409.507 345.225 412.904 345.132 347.694 345.129C345.291 345.413 342.854 345.089 340.609 344.184C339.32 343.485 338.243 342.449 337.493 341.188C336.744 339.926 336.349 338.485 336.352 337.018V303.914C336.355 302.215 336.891 300.56 337.886 299.183C338.881 297.806 340.283 296.777 341.895 296.24C342.966 295.884 344.098 295.757 345.22 295.866H409.214C410.361 295.858 411.497 296.096 412.546 296.562C413.594 297.028 414.531 297.713 415.294 298.57C416.06 299.424 416.635 300.433 416.98 301.528C417.325 302.623 417.433 303.779 417.295 304.918V319.402C412.75 330.045 411.48 333.475 410.686 337.884C410.252 340.218 410.312 342.617 410.864 344.927V344.939ZM394.024 285.124C396.74 281.111 403.68 269.584 404.283 266.582C405.647 272.698 406.562 278.905 407.37 285.124H394.024ZM272.089 298.298C268.23 298.207 264.387 297.765 260.608 296.977L267.817 292.9C269.123 294.786 270.55 296.587 272.089 298.286V298.298ZM231.432 279.457C254.139 281.397 262.883 269.593 283.734 267.819C284.739 267.59 285.783 267.598 286.785 267.842C287.786 268.087 288.717 268.561 289.503 269.228C290.419 270.811 290.679 272.689 290.228 274.46C289.777 276.232 288.65 277.757 287.089 278.709C285.089 280.227 282.955 281.56 280.713 282.695C280.713 282.695 261.878 293.211 256.574 296.352C256.367 296.482 256.202 296.668 256.098 296.889C255.994 297.11 255.955 297.356 255.985 297.598C256.017 297.841 256.117 298.069 256.275 298.256C256.433 298.443 256.641 298.58 256.875 298.651C279.386 305.045 305.948 294.062 309.116 307.034C309.143 308.833 308.625 310.598 307.63 312.098C306.634 313.597 305.209 314.76 303.54 315.434C299.629 317.101 295.54 318.316 291.353 319.055C264.271 325.787 266.749 325.117 265.21 325.63C257.437 328.237 257.292 334.957 261.667 337.558C270.566 343.84 278.803 345.256 287.88 355.636C289.198 356.846 290.128 358.421 290.544 360.162C290.572 361.806 290.161 363.428 289.353 364.861C288.544 366.293 287.368 367.483 285.945 368.309C283.916 369.222 281.694 369.625 279.473 369.483C262.575 369.449 252.965 359.281 223.726 358.336C213.108 357.766 204.746 357.88 193.902 357.018C198.482 320.694 197.96 301.095 202.725 273.691C211.97 276.97 221.637 278.912 231.432 279.457ZM133.432 170.902C131.861 183.185 129.45 195.345 126.214 207.298C117.572 196.001 111.209 182.498 104.908 170.748L133.432 170.902ZM167.36 410.761C170.102 415.516 171.905 420.754 172.671 426.189C173.392 435.697 168.338 444.221 162.007 450.908C137.666 475.28 99.0845 486.616 66.5837 495.85C62.6007 497.226 58.4547 498.074 54.2514 498.369C53.325 498.387 52.3991 498.312 51.4875 498.146C49.5073 497.409 47.718 496.237 46.2522 494.715C39.0441 486.976 33.1122 478.141 28.6787 468.539C26.0177 463.427 24.0801 457.969 22.9214 452.323C22.3283 449.416 22.7572 446.394 24.1356 443.767C25.514 441.14 27.7572 439.07 30.4861 437.906C34.7049 435.675 39.0891 433.773 43.5999 432.215C47.429 430.77 59.8277 426.316 62.1541 425.411C63.0443 425.064 63.5331 423.618 62.4559 423.111C55.4522 419.934 48.8158 416.002 42.6645 411.386C36.6355 407.006 31.6401 401.357 28.0299 394.838C26.4032 391.69 25.3285 388.286 24.8525 384.775C50.9775 385.197 111.999 374.7 135.786 369.6C148.368 381.612 159.019 395.496 167.36 410.761ZM182.203 355.931C180.664 356.308 148.033 364.232 141.956 365.65C114.498 372.062 51.9129 382.593 24.6715 382.189V195.035C24.622 191.81 25.2174 188.607 26.4227 185.615C27.628 182.623 29.419 179.902 31.6905 177.612C33.962 175.322 36.6681 173.508 39.6501 172.278C42.6321 171.048 45.8298 170.426 49.0554 170.449C63.4292 172.124 77.1026 177.577 88.6834 186.255C111.833 204.634 126.429 233.405 176.859 260.363C178.286 261.123 179.557 258.954 178.129 258.19C168.762 253.185 159.752 247.539 151.163 241.293C107.325 209.365 102.196 182.012 62.3925 170.516L101.867 170.727C109.582 184.987 115.379 197.884 125.044 209.954C125.55 210.587 125.949 211.284 126.854 211.239C127.126 211.232 127.389 211.139 127.606 210.974C127.823 210.809 127.982 210.579 128.061 210.319C131.793 197.42 134.495 184.246 136.142 170.92L157.442 171.035C160.625 171.012 163.781 171.617 166.731 172.814C169.68 174.011 172.365 175.777 174.632 178.012C176.899 180.247 178.703 182.907 179.942 185.839C181.181 188.771 181.83 191.919 181.853 195.102V261.371C181.78 261.581 181.781 261.809 181.857 262.018C181.933 262.227 182.079 262.403 182.269 262.517C187.785 266.661 193.806 270.085 200.187 272.707C195.558 299.378 195.661 321.535 191.249 356.794C184.514 356.145 183.678 355.485 182.203 355.934V355.931ZM321.953 408.417H257.265C254.455 394.02 249.419 381.661 236.746 374.404C227.775 369.513 222.815 368.463 187.9 358.952C206.409 361.215 224.764 359.033 242.597 363.01C257.289 366.287 261.266 370.14 276.715 371.872C279.39 372.169 282.096 372.017 284.72 371.423C287.034 370.76 289.085 369.396 290.592 367.519C292.099 365.643 292.988 363.345 293.136 360.943C293.121 357.12 290.242 354.332 287.747 351.779C280.505 344.311 274.675 342.661 265.345 336.906C263.975 336.061 261.697 335.078 261.368 333.309C261.299 332.496 261.46 331.68 261.834 330.955C262.208 330.23 262.778 329.624 263.481 329.209C265.949 327.772 265.14 328.168 289.304 322.163C294.14 321.204 298.897 319.882 303.534 318.207C310.368 320.643 317.488 322.187 324.717 322.803V353.949C323.476 355.086 304.08 374.878 297.234 381.486C296.434 382.2 295.84 383.115 295.514 384.136C295.188 385.157 295.141 386.247 295.379 387.292C295.617 388.337 296.13 389.3 296.866 390.079C297.602 390.858 298.533 391.427 299.563 391.724C300.888 391.971 302.24 392.044 303.585 391.941L322.782 391.981C322.242 397.68 322.046 402.756 321.953 408.417ZM301.286 389.428C300.363 389.44 299.473 389.087 298.808 388.447C298.144 387.806 297.759 386.929 297.738 386.006C297.701 384.002 299.114 383.13 301.102 381.139L326.337 355.862C339.369 355.862 418.257 355.986 424.669 355.989C395.868 384.618 397.005 384.298 391.996 386.996C389.47 388.275 386.726 389.066 383.907 389.328C381.843 389.515 316.171 389.376 301.286 389.428ZM393.116 431.002C392.666 433.814 391.924 439.409 391.695 442.604C391.031 447.785 391.453 453.05 392.935 458.059C387.8 463.538 381.315 467.57 374.13 469.752C350.944 477.516 332.96 467.006 327.828 451.044C327.26 448.692 326.871 446.3 326.663 443.89C325.221 432.964 324.472 421.959 324.421 410.939H389.993C390.316 410.925 390.621 410.787 390.844 410.553C391.068 410.319 391.192 410.007 391.191 409.684C391.193 409.36 391.069 409.048 390.845 408.813C390.622 408.579 390.316 408.44 389.993 408.426H324.439C324.523 402.937 324.813 397.46 325.311 391.996C348.084 392.032 380.88 392.059 383.333 391.896C386.985 391.658 390.543 390.64 393.768 388.912C397.758 386.376 401.363 383.281 404.473 379.721C402.98 383.921 401.7 388.194 400.638 392.524C398.828 399.793 393.164 430.7 393.116 431.002ZM528.901 361.698C529.22 385.116 511.004 394.751 503.252 403.604C492.875 415.48 487.746 444.514 479.01 459.988C474.321 467.277 467.203 472.671 458.917 475.214C449.937 477.869 440.492 478.563 431.22 477.25C425.137 476.545 419.142 475.213 413.333 473.276C405.125 470.289 395.424 462.332 394.205 452.758C393.062 442.025 396.354 426.612 398.517 415.36C401.136 401.781 403.366 388.025 408.924 375.249C412.5 371.664 425.599 358.581 428.574 355.636C429.072 354.878 428.939 355.744 428.939 349.703C436.246 344.931 442.452 338.656 447.143 331.297C447.158 336.222 448.514 341.05 451.066 345.262C451.946 346.706 453.106 347.96 454.478 348.951C455.849 349.942 457.405 350.649 459.053 351.031C462.503 351.855 466.129 351.519 469.368 350.073C472.608 348.627 475.28 346.153 476.97 343.035C477.297 345.033 478.042 346.939 479.158 348.629C480.274 350.318 481.736 351.752 483.446 352.835C486.416 354.478 489.859 355.053 493.202 354.465C496.544 353.877 499.585 352.161 501.816 349.604C504.148 346.221 505.054 342.056 504.339 338.011C511.468 340.509 518.801 342.383 526.254 343.611C527.92 349.498 528.813 355.578 528.904 361.698H528.901ZM570.743 283.018C570.5 293.675 569.276 304.287 567.086 314.719C564.796 324.038 559.095 332.159 551.109 337.48C536.773 345.79 519.025 340.195 503.231 335.017C502.907 334.935 502.563 334.982 502.272 335.147C502.127 335.231 502.001 335.343 501.901 335.476C501.8 335.609 501.727 335.761 501.686 335.923C501.385 337.051 503.111 342.811 500.561 347.048C498.91 349.44 496.412 351.115 493.572 351.734C491.086 352.547 488.388 352.423 485.988 351.384C483.587 350.345 481.649 348.464 480.54 346.094C479.269 342.935 478.694 339.539 478.853 336.137C478.844 335.895 478.764 335.661 478.625 335.464C478.485 335.266 478.291 335.113 478.066 335.024C477.842 334.934 477.596 334.911 477.358 334.958C477.121 335.005 476.903 335.12 476.729 335.289C476.494 335.51 476.354 335.814 476.34 336.137C476.235 337.998 475.762 339.819 474.949 341.496C474.135 343.172 472.996 344.671 471.599 345.904C469.78 347.238 467.674 348.128 465.45 348.502C453.199 351.302 448.534 338.152 449.841 325.872C449.831 325.6 449.735 325.339 449.567 325.125C449.399 324.912 449.167 324.758 448.905 324.686C448.643 324.616 448.365 324.632 448.112 324.731C447.859 324.831 447.644 325.008 447.499 325.238C444.678 331.205 440.71 336.56 435.822 340.995C431.73 344.918 426.727 349.522 420.695 349.667C419.453 349.734 418.214 349.481 417.097 348.934C415.98 348.386 415.021 347.561 414.313 346.538C413.096 344.382 412.634 341.881 412.998 339.432C413.345 336.743 414.021 334.109 415.013 331.587C418.058 323.512 422.859 312.387 428.266 301.669C430.954 296.328 433.528 290.181 439.268 287.514C444.409 285.425 449.943 284.479 455.486 284.741C476.753 285.737 487.009 288.015 507.582 290.613C507.916 290.612 508.235 290.479 508.47 290.243C508.705 290.007 508.838 289.688 508.838 289.354C507.776 276.783 507.978 264.137 509.441 251.606C528.587 251.19 549.974 250.113 568.999 248.779C570.598 260.117 571.182 271.576 570.743 283.018ZM508.349 249.144C508.077 249.146 507.813 249.235 507.596 249.398C507.379 249.561 507.219 249.789 507.142 250.049C505.548 262.612 505.245 275.305 506.237 287.93C486.973 285.438 479.852 283.664 457.442 282.351C451.419 281.85 445.36 282.634 439.663 284.65C434.838 286.549 430.963 290.284 428.888 295.036C428.761 292.305 427.567 289.733 425.562 287.874C423.558 286.014 420.903 285.017 418.17 285.097H409.953C409.005 277.36 407.618 269.684 405.801 262.104C405.718 261.849 405.557 261.626 405.34 261.467C405.124 261.308 404.863 261.222 404.594 261.22C404.326 261.22 404.064 261.306 403.847 261.464C403.631 261.622 403.469 261.845 403.387 262.101C403.131 262.864 402.805 263.61 402.506 264.349C398.753 262.557 394.961 260.847 391.133 259.219C391.133 259.219 351.647 241.097 351.37 240.976C356.125 231.544 361.538 222.459 367.57 213.789C374.378 203.759 382.285 194.522 391.145 186.249C396.789 180.453 403.505 175.809 410.919 172.574C423.571 167.415 436.981 164.357 450.619 163.521C450.548 166.898 451.152 170.255 452.396 173.394C452.95 174.792 453.842 176.03 454.993 176.997C456.144 177.964 457.517 178.63 458.99 178.934C465.175 179.616 467.84 169.158 468.615 162.996C500.654 163.56 530.029 175.437 549.872 199.936C558.487 211.058 565.231 225.192 568.607 246.302C547.85 247.792 525.005 248.806 508.349 249.144Z" fill="black"/>
<path d="M177.83 354.576C144.828 348.508 114.934 331.946 98.2269 315.326C79.9895 297.073 67.9801 273.024 41.9004 271.552C40.283 271.464 40.286 273.966 41.9004 274.068C61.5137 275.492 72.3433 289.427 85.0286 304.421C91.2041 312.142 98.1947 319.174 105.879 325.395C126.834 341.373 151.253 352.199 177.163 356.999C178.744 357.295 179.42 354.869 177.827 354.576H177.83Z" fill="black"/>
<path d="M121.503 124.111C114.562 120.71 107.68 123.205 104.267 131.787C102.894 134.604 102.363 137.758 102.737 140.869C102.99 141.933 103.454 142.934 104.101 143.816C104.747 144.697 105.564 145.439 106.503 145.999C108.08 147.145 109.904 147.905 111.828 148.219C113.752 148.533 115.723 148.392 117.583 147.808C119.443 147.224 121.141 146.212 122.54 144.855C123.939 143.497 125 141.83 125.639 139.988C126.641 137.113 126.967 134.041 126.587 131.017C126.371 129.538 125.794 128.134 124.907 126.929C124.02 125.725 122.851 124.757 121.503 124.111ZM123.763 137.327C123.528 138.923 122.909 140.439 121.959 141.742C121.009 143.046 119.756 144.1 118.308 144.813C116.861 145.525 115.262 145.875 113.649 145.833C112.036 145.79 110.458 145.356 109.05 144.569C107.421 143.897 106.112 142.624 105.395 141.014C104.83 138.095 105.293 135.07 106.705 132.454C107.722 129.59 109.776 127.213 112.462 125.791C114.485 124.971 116.736 124.912 118.8 125.625C120.863 126.337 122.598 127.772 123.684 129.666C124.438 132.158 124.466 134.816 123.763 137.324V137.327Z" fill="black"/>
<path d="M137.472 116.947C139.651 112.439 134.582 106.525 127.79 107.647L130.068 105.909C132.02 104.425 134.223 102.837 133.71 100.058C133.425 98.8961 132.777 97.8549 131.86 97.086C130.943 96.3171 129.804 95.8606 128.61 95.7827C126.126 95.5694 123.635 96.0999 121.453 97.3065C120.005 98.091 120.068 98.3264 120.246 97.8557C121.54 94.4219 120.72 90.2367 117.084 89.3676C113.399 88.8155 110.955 91.9053 110.005 95.478C108.704 99.4146 107.62 103.42 106.758 107.475C106.212 109.286 105.943 111.169 105.97 113.058C106.168 114.778 106.978 116.371 108.252 117.544C109.526 118.717 111.179 119.393 112.911 119.448C119.136 119.602 125.385 119.687 131.619 119.448C133.812 119.379 136.371 119.219 137.472 116.947ZM112.914 116.947C111.827 116.904 110.79 116.483 109.98 115.758C109.17 115.033 108.637 114.048 108.475 112.973C108.436 111.57 108.626 110.167 109.042 108.824C109.926 104.048 111.224 99.357 112.92 94.8051C113.12 94.1867 113.445 93.6158 113.874 93.1275C114.303 92.6392 114.827 92.2438 115.415 91.9656C115.667 91.866 115.936 91.8183 116.206 91.8255C116.476 91.8326 116.743 91.8945 116.988 92.0073C117.234 92.12 117.455 92.2814 117.637 92.4817C117.818 92.682 117.958 92.917 118.046 93.1726C118.499 94.6753 118.357 96.2957 117.657 97.6988C116.999 99.5092 116.269 101.32 115.575 103.13C115.053 104.485 117.168 105.294 117.871 104.099C120.889 99.0084 127.035 97.2371 129.923 98.8092C130.36 99.0387 130.72 99.3923 130.956 99.8256C131.193 100.259 131.296 100.752 131.254 101.244C131.021 102.321 129.745 103.055 128.939 103.658L121.501 109.322C121.243 109.479 121.05 109.724 120.957 110.011C120.864 110.299 120.877 110.61 120.995 110.889C121.112 111.168 121.325 111.395 121.596 111.529C121.867 111.664 122.177 111.696 122.47 111.621C125.47 110.132 128.9 109.753 132.153 110.55C133.354 111.033 134.362 111.905 135.013 113.024C135.322 113.333 135.534 113.726 135.623 114.154C135.712 114.581 135.674 115.026 135.514 115.432C135.354 115.839 135.078 116.189 134.721 116.441C134.364 116.693 133.941 116.836 133.505 116.85C126.65 117.32 119.772 117.348 112.914 116.935V116.947Z" fill="black"/>
<path d="M75.3869 518.858C64.5454 516.148 54.2174 511.691 44.8082 505.662C38.5087 501.656 33.32 496.127 29.721 489.586C23.7701 479.025 18.8055 467.938 14.8903 456.466C14.8121 456.266 14.6841 456.089 14.5184 455.952C14.3527 455.814 14.1548 455.722 13.9433 455.683C13.7318 455.643 13.5138 455.659 13.3099 455.727C13.106 455.796 12.923 455.915 12.7781 456.074C12.5851 456.289 12.4721 456.564 12.4582 456.852C12.4582 469.867 10.8409 483.632 15.3489 496.136C17.7499 502.654 21.9348 508.365 27.426 512.618C32.9173 516.871 39.4936 519.494 46.4044 520.188C55.8763 521.685 65.4906 522.071 75.052 521.338C76.3947 521.223 76.8474 519.208 75.3869 518.858ZM50.3844 518.227C43.227 517.789 36.303 515.515 30.2792 511.625C24.9412 508.008 20.788 502.898 18.3392 496.933C14.1903 485.916 14.5976 476.819 14.8812 463.657C18.9638 474.218 24.9776 488.385 32.3311 497.871C40.7799 508.221 54.986 514.956 67.5386 519.135C61.8054 519.238 56.0723 518.933 50.3844 518.227Z" fill="black"/>
<path d="M289.987 420.429C289.672 420.444 289.373 420.576 289.15 420.799C288.927 421.022 288.795 421.321 288.78 421.636V532.605C272.89 536.072 238.359 541.356 222.303 543.71C221.982 543.8 221.711 544.014 221.546 544.303C221.382 544.593 221.338 544.936 221.425 545.258C221.521 545.574 221.735 545.842 222.023 546.006C222.311 546.169 222.651 546.216 222.973 546.136C234.204 544.497 274.571 538.314 290.062 534.902C307.364 537.551 339.476 543.616 356.748 546.971C358.329 547.273 359.005 544.859 357.415 544.557C351.875 543.48 296.662 533.393 291.306 532.569V421.645C291.295 421.394 291.211 421.152 291.063 420.949C290.915 420.746 290.711 420.592 290.476 420.505C290.32 420.447 290.153 420.421 289.987 420.429Z" fill="black"/>
<path d="M298.441 64.7665C298.11 64.7735 297.794 64.9084 297.56 65.143C297.326 65.3775 297.192 65.6935 297.186 66.0248V100.122C297.188 100.454 297.321 100.773 297.556 101.008C297.791 101.243 298.109 101.377 298.441 101.38H315.2C315.532 101.375 315.85 101.241 316.085 101.006C316.32 100.771 316.454 100.454 316.458 100.122V66.0248C316.453 65.6928 316.319 65.3759 316.084 65.1411C315.849 64.9063 315.532 64.772 315.2 64.7665H298.441ZM313.945 98.8636H299.699V67.271H313.945V98.8636Z" fill="black"/>
<path d="M326.575 54.5978C326.243 54.6025 325.926 54.7367 325.691 54.9717C325.457 55.2068 325.324 55.5241 325.32 55.8561V100.128C325.322 100.46 325.455 100.779 325.69 101.014C325.925 101.249 326.242 101.383 326.575 101.386H343.934C344.266 101.382 344.584 101.247 344.819 101.013C345.054 100.778 345.188 100.46 345.192 100.128V55.8501C345.187 55.5181 345.053 55.2012 344.818 54.9664C344.583 54.7315 344.266 54.5972 343.934 54.5918L326.575 54.5978ZM342.676 98.8787H327.833V57.1023H342.676V98.8757V98.8787Z" fill="black"/>
<path d="M360.691 31.8463C360.359 31.8518 360.042 31.9861 359.807 32.2209C359.572 32.4557 359.438 32.7726 359.432 33.1046V100.128C359.439 100.46 359.573 100.776 359.808 101.011C360.043 101.245 360.359 101.38 360.691 101.386H382.238C382.571 101.382 382.888 101.247 383.123 101.012C383.358 100.778 383.492 100.46 383.497 100.128V33.1046C383.491 32.7726 383.357 32.4557 383.122 32.2209C382.887 31.9861 382.57 31.8518 382.238 31.8463H360.691ZM380.98 98.8727H361.946V34.3598H380.98V98.8727Z" fill="black"/>
<path d="M387.782 1.02603C377.892 5.48713 367.638 9.09111 357.131 11.7983C356.839 11.9102 356.599 12.1272 356.458 12.4066C356.317 12.6861 356.285 13.0081 356.369 13.3098C356.452 13.6114 356.646 13.871 356.91 14.0379C357.175 14.2047 357.493 14.2669 357.801 14.2122C364.281 12.5099 370.672 10.4857 376.95 8.14718C342.98 27.4054 307.362 43.5996 270.519 56.5378C269.01 57.0689 269.656 59.4949 271.185 58.9518C300.754 48.5606 329.552 36.0968 357.367 21.6532C367.212 16.5236 373.244 13.0354 377.936 10.4887C373.561 14.7342 369.119 18.9074 364.385 22.7335C363.127 23.7504 364.916 25.5216 366.165 24.5107C374.524 17.7517 382.263 9.68909 389.004 3.20462C389.517 2.7339 389.762 0.178125 387.782 1.02603Z" fill="black"/>
<path d="M510.637 60.3612L495.04 89.1385C494.267 90.5627 496.437 91.8331 497.209 90.4088L512.809 61.6255C513.582 60.2073 511.409 58.9339 510.637 60.3582V60.3612Z" fill="black"/>
<path d="M506.141 96.4951L529.616 79.6186C530.92 78.6832 529.665 76.5016 528.349 77.446L504.873 94.3256C503.573 95.261 504.825 97.4456 506.141 96.4951Z" fill="black"/>
<path d="M49.1136 111.087C51.9712 99.6211 61.0355 83.855 71.4427 77.9106C72.8579 77.1261 71.5755 74.9263 70.1723 75.7411C65.1858 78.7456 60.9185 82.8069 57.6711 87.6388C52.6685 94.5089 48.9495 102.227 46.6937 110.42C46.3346 111.996 48.7576 112.665 49.1136 111.087Z" fill="black"/>
<path d="M58.4641 67.4822C47.5657 79.522 38.9905 93.4754 33.1719 108.637C32.6529 110.176 35.0789 110.834 35.5858 109.307C41.2879 94.5653 49.6412 80.9923 60.2323 69.2595C61.3789 68.1068 59.6016 66.3265 58.4641 67.4822Z" fill="black"/>
<path d="M92.2703 355.557C79.6051 349.468 68.8001 340.101 60.9764 328.427C60.0712 327.088 57.9017 328.346 58.8039 329.695C66.8443 341.743 77.9603 351.422 91 357.73C92.4513 358.43 93.7277 356.26 92.2703 355.557Z" fill="black"/>
<path d="M87.6457 364.115C74.944 357.945 64.3058 348.222 57.0217 336.125C56.1617 334.758 53.9862 336.019 54.8522 337.395C62.3894 349.842 73.3322 359.872 86.3874 366.299C87.8358 366.963 89.1031 364.791 87.6457 364.115Z" fill="black"/>
<path d="M456.274 191.098C455.996 189.803 454.228 190.011 453.86 191.098C452.728 194.344 435.921 242.464 435.453 243.903C435.043 245.206 436.359 246.45 437.046 247.463C448.67 264.482 447.951 263.516 448.235 263.715C448.396 263.897 448.61 264.023 448.847 264.075C449.085 264.126 449.332 264.101 449.554 264.002C449.7 263.935 449.831 263.837 449.937 263.715C453.597 259.461 464.906 247.119 466.75 245.077C467.221 244.552 467.625 244.135 467.48 243.333C467.489 243.287 456.283 191.14 456.274 191.101V191.098ZM449.189 260.8C445.869 255.933 438.38 244.971 437.961 244.355L454.774 196.076L464.922 243.351L449.189 260.8Z" fill="black"/>
<path d="M118.757 136.763C118.477 136.609 118.149 136.568 117.84 136.649C117.531 136.73 117.265 136.926 117.097 137.197C116.412 138.35 115.365 139.409 114.562 138.335C114.245 137.822 114.053 137.24 114.004 136.639C113.739 135.046 111.319 135.734 111.59 137.303C111.635 138.252 111.998 139.16 112.621 139.878C113.244 140.597 114.09 141.085 115.024 141.265C115.924 141.252 116.801 140.984 117.554 140.491C118.307 139.999 118.904 139.302 119.276 138.482C119.356 138.336 119.406 138.175 119.423 138.008C119.44 137.842 119.424 137.674 119.376 137.514C119.328 137.354 119.248 137.205 119.142 137.076C119.035 136.947 118.904 136.84 118.757 136.763Z" fill="black"/>
<path d="M270.841 523.653C256.181 516.921 240.389 512.995 224.282 512.078C206.947 511.573 189.776 515.561 174.437 523.653C174.206 523.797 174.028 524.012 173.928 524.266C173.828 524.52 173.812 524.798 173.882 525.062C173.953 525.325 174.107 525.558 174.322 525.726C174.536 525.895 174.798 525.99 175.071 525.997C263.364 527.135 269.867 525.997 270.223 525.997C271.369 525.997 272.033 524.178 270.841 523.653ZM180.49 523.484C190.922 518.725 202.086 515.774 213.507 514.757C230.771 513.886 248.013 516.863 263.986 523.472L180.49 523.484Z" fill="black"/>
<path d="M372.009 504.848H467.161C468.323 504.848 468.971 503.037 467.798 502.509C448.549 493.731 424.346 488.511 403.701 491.891C395.174 488.6 386.309 486.263 377.268 484.924C359.919 482.006 342.099 484.018 325.836 490.729C322.363 492.066 318.968 493.599 315.667 495.319C315.438 495.464 315.26 495.678 315.161 495.931C315.062 496.184 315.046 496.462 315.115 496.725C315.186 496.988 315.341 497.221 315.556 497.389C315.769 497.558 316.032 497.653 316.304 497.66H382.259C378.539 499.048 374.912 500.666 371.396 502.509C371.168 502.653 370.992 502.865 370.893 503.116C370.794 503.367 370.777 503.642 370.845 503.903C370.914 504.164 371.063 504.396 371.272 504.566C371.482 504.736 371.74 504.835 372.009 504.848ZM321.729 495.144C335.432 488.816 350.421 485.771 365.506 486.251C376.867 486.915 388.089 489.106 398.864 492.772C395.749 493.422 392.665 494.214 389.622 495.144H321.729ZM421.223 493.442C434.859 494.211 448.276 497.214 460.939 502.331H377.446C391.144 495.991 406.137 492.948 421.223 493.445V493.442Z" fill="black"/>
<path d="M544.154 365.943C544.15 365.611 544.016 365.293 543.781 365.058C543.546 364.823 543.228 364.689 542.895 364.685C542.564 364.69 542.247 364.825 542.013 365.06C541.778 365.294 541.645 365.611 541.64 365.943C539.775 382.102 532.062 397.02 519.957 407.885C511.33 415.64 508.584 415.127 508.472 416.672C508.285 416.812 508.146 417.006 508.071 417.228C507.997 417.449 507.992 417.688 508.056 417.912C514.291 443.257 519.803 468.774 524.586 494.432C524.887 496.022 527.301 495.337 526.999 493.765C522.247 468.284 516.778 442.943 510.597 417.771C519.837 412.338 527.681 404.824 533.507 395.827C539.332 386.83 542.978 376.597 544.154 365.943Z" fill="black"/>
<path d="M22.3176 416.15C22.557 416.38 22.8759 416.508 23.2078 416.508C23.5396 416.508 23.8585 416.38 24.0979 416.15C24.3332 415.914 24.4653 415.595 24.4653 415.262C24.4653 414.928 24.3332 414.609 24.0979 414.373C15.9431 407.687 9.73742 398.93 6.13156 389.02C2.52569 379.11 1.65247 368.413 3.60346 358.049C3.92331 356.468 1.49125 355.795 1.18951 357.38C-0.887696 368.17 -0.0221156 379.321 3.69541 389.662C7.41294 400.003 13.8454 409.152 22.3176 416.15Z" fill="black"/>
<path d="M424.64 376.61C424.359 376.459 424.032 376.42 423.724 376.502C423.416 376.583 423.15 376.778 422.98 377.047L417.612 386.296C417.528 386.438 417.473 386.596 417.45 386.759C417.427 386.923 417.437 387.089 417.479 387.249C417.521 387.409 417.594 387.559 417.694 387.691C417.794 387.822 417.919 387.933 418.062 388.016C418.35 388.183 418.693 388.23 419.016 388.146C419.339 388.061 419.615 387.853 419.785 387.566L425.15 378.315C425.307 378.02 425.343 377.676 425.249 377.355C425.15 377.037 424.932 376.77 424.64 376.61Z" fill="black"/>
<path d="M241.3 393.32C239.729 390.216 238.159 387.111 236.589 384.006C235.859 382.56 233.69 383.831 234.417 385.273C235.989 388.377 237.559 391.482 239.127 394.588C239.857 396.033 242.027 394.763 241.3 393.32Z" fill="black"/>
<path d="M70.3555 424.711C70.0343 424.625 69.6924 424.669 69.4034 424.834C69.1144 424.998 68.9015 425.269 68.8106 425.589C68.7296 425.91 68.7754 426.25 68.9383 426.538C69.1012 426.826 69.3689 427.04 69.6857 427.137C73.4009 428.675 76.7521 430.975 79.5225 433.89C80.645 435.06 82.4192 433.286 81.3028 432.115C78.2146 428.905 74.4844 426.382 70.3555 424.711Z" fill="black"/>
<path d="M163.934 429.418C164.104 429.704 164.38 429.912 164.701 429.997C165.023 430.081 165.365 430.036 165.654 429.871C165.935 429.696 166.138 429.42 166.223 429.101C166.307 428.781 166.265 428.441 166.107 428.151L162.012 418.534C161.842 418.247 161.566 418.039 161.244 417.954C160.921 417.869 160.578 417.915 160.289 418.081C160.008 418.256 159.805 418.532 159.721 418.852C159.638 419.172 159.68 419.512 159.84 419.801C161.212 423.006 162.579 426.21 163.934 429.418Z" fill="black"/>
<path d="M378.621 317.133C378.552 314.024 378.531 310.913 378.558 307.803C380.8 307.909 383.051 308.165 385.278 308.337C386.892 308.464 386.883 305.947 385.278 305.824C383.051 305.652 380.818 305.444 378.588 305.326C378.588 304.369 378.588 303.413 378.621 302.456C378.621 302.123 378.489 301.802 378.253 301.567C378.017 301.331 377.697 301.198 377.363 301.198C377.029 301.198 376.709 301.331 376.473 301.567C376.237 301.802 376.105 302.123 376.105 302.456C376.083 303.392 376.105 304.327 376.074 305.262C367.324 305.32 364.659 312.806 368.335 316.445C370.1 318.192 372.559 318.219 376.147 319.046C376.262 322.969 376.473 326.87 376.75 330.778C374.125 330.502 371.623 329.522 369.509 327.942C368.199 326.988 366.944 329.167 368.238 330.111C370.781 331.956 373.782 333.065 376.913 333.316C376.95 333.801 376.974 334.293 377.013 334.782C377.143 336.381 379.656 336.396 379.526 334.782C379.487 334.287 379.463 333.789 379.427 333.294C389.472 332.223 389.68 320.7 378.621 317.133ZM370.737 315.108C370.357 314.868 370.032 314.55 369.782 314.177C369.532 313.803 369.362 313.381 369.285 312.938C369.207 312.496 369.223 312.041 369.331 311.605C369.439 311.169 369.638 310.76 369.913 310.404C370.65 309.508 371.592 308.801 372.659 308.343C373.725 307.885 374.886 307.69 376.044 307.773C376.023 310.676 376.041 313.579 376.099 316.484C374.25 316.309 372.441 315.845 370.737 315.108ZM379.249 330.784C378.998 327.124 378.812 323.461 378.691 319.794C379.962 320.137 381.13 320.788 382.09 321.69C383.05 322.591 383.773 323.716 384.194 324.963C385.115 327.721 383.135 330.521 379.249 330.784Z" fill="black"/>
<path d="M325.351 366.933H399.278C399.601 366.919 399.906 366.78 400.13 366.546C400.353 366.312 400.477 366.001 400.476 365.677C400.478 365.353 400.354 365.041 400.131 364.807C399.907 364.572 399.602 364.433 399.278 364.419H325.351C325.027 364.433 324.722 364.572 324.498 364.807C324.275 365.041 324.151 365.353 324.153 365.677C324.155 366 324.28 366.31 324.503 366.543C324.725 366.776 325.029 366.916 325.351 366.933Z" fill="black"/>
<path d="M389.113 377.307C389.101 376.991 388.97 376.69 388.746 376.467C388.522 376.243 388.222 376.112 387.906 376.1H314.884C314.562 376.118 314.258 376.258 314.035 376.491C313.813 376.725 313.688 377.035 313.686 377.358C313.688 377.681 313.813 377.99 314.036 378.224C314.258 378.457 314.562 378.596 314.884 378.613H387.906C388.238 378.598 388.551 378.452 388.777 378.207C389.003 377.963 389.124 377.639 389.113 377.307Z" fill="black"/>
<path d="M273.581 194.96C278.813 193.195 283.515 190.138 287.251 186.071C290.986 182.004 293.633 177.059 294.947 171.696C295.316 170.117 292.893 169.448 292.533 171.023C291.342 175.971 288.919 180.538 285.49 184.299C282.062 188.061 277.737 190.894 272.92 192.537C271.384 193.041 272.039 195.467 273.581 194.96Z" fill="black"/>
<path d="M237.559 299.258L247.858 297.749C248.177 297.657 248.447 297.444 248.611 297.155C248.775 296.867 248.82 296.525 248.736 296.204C248.641 295.887 248.427 295.619 248.14 295.455C247.852 295.292 247.512 295.246 247.191 295.326L236.889 296.835C236.569 296.924 236.297 297.137 236.132 297.427C235.968 297.716 235.924 298.059 236.011 298.38C236.108 298.697 236.322 298.965 236.61 299.128C236.898 299.292 237.238 299.338 237.559 299.258Z" fill="black"/>
<path d="M238.105 331.722C237.865 331.735 237.633 331.816 237.438 331.957C237.242 332.097 237.091 332.29 237.001 332.513C236.912 332.736 236.888 332.98 236.933 333.217C236.978 333.453 237.089 333.672 237.254 333.847C237.477 334.082 237.782 334.221 238.105 334.236H248.422C248.745 334.223 249.051 334.084 249.274 333.85C249.498 333.616 249.621 333.304 249.62 332.981C249.618 332.658 249.494 332.347 249.271 332.113C249.048 331.879 248.744 331.739 248.422 331.722H238.105Z" fill="black"/>
<path d="M123.047 319.592C124.478 320.35 125.763 318.18 124.315 317.423C120.616 315.482 117.381 312.764 114.831 309.457C114.655 309.176 114.379 308.973 114.059 308.89C113.738 308.806 113.398 308.848 113.108 309.007C112.821 309.176 112.612 309.451 112.527 309.774C112.442 310.096 112.488 310.439 112.655 310.727C115.437 314.4 118.984 317.425 123.05 319.592H123.047Z" fill="black"/>
<path d="M452.678 306.907C451.456 310.286 450.237 313.672 449.018 317.058C448.466 318.584 450.895 319.239 451.432 317.724L455.092 307.577C455.65 306.05 453.224 305.392 452.678 306.907Z" fill="black"/>
<path d="M481.547 317.115C480.894 320.53 479.763 323.837 478.188 326.937C477.452 328.373 479.621 329.652 480.358 328.204C482.047 324.918 483.266 321.409 483.979 317.785C484.277 316.21 481.854 315.519 481.547 317.115Z" fill="black"/>
<path d="M510.145 290.963C517.176 291.578 524.155 292.677 531.035 294.246C532.61 294.605 533.283 292.182 531.702 291.832C524.602 290.214 517.4 289.087 510.145 288.458C508.528 288.307 508.543 290.821 510.145 290.963Z" fill="black"/>
<path d="M550.348 334.145C552.983 332.388 555.372 330.289 557.454 327.902C558.51 326.695 556.739 324.885 555.677 326.125C553.749 328.361 551.529 330.327 549.078 331.973C547.753 332.869 548.996 335.051 550.348 334.145Z" fill="black"/>
<path d="M341.788 277.312L341.396 268.936C341.321 267.328 338.807 267.318 338.883 268.936L339.275 277.312C339.35 278.924 341.864 278.933 341.788 277.312Z" fill="black"/>
<path d="M402.846 237.5C402.838 237.169 402.703 236.853 402.468 236.619C402.234 236.385 401.919 236.25 401.588 236.241C401.34 236.242 401.097 236.316 400.89 236.454C400.684 236.592 400.522 236.788 400.426 237.017C400.364 237.17 400.332 237.334 400.333 237.5C401.126 244.425 402.077 251.329 403.184 258.211C403.275 258.532 403.489 258.803 403.778 258.968C404.068 259.132 404.411 259.176 404.732 259.089C405.049 258.995 405.318 258.781 405.481 258.493C405.645 258.205 405.691 257.866 405.61 257.544C404.539 250.882 403.619 244.201 402.846 237.5Z" fill="black"/>
</svg>
